# xmcd CD database file
#
# Track frame offsets:
#	150
#	23178
#	48739
#	71291
#	92347
#	114693
#	133024
#	161651
#	191178
#	216461
#	245164
#	269464
#	292505
#	325447
#
# Disc length: 4653 seconds
#
# Revision: 6
# Processed by: cddbd v1.5.2PL0 Copyright (c) Steve Scherf et al.
# Submitted via: CDex 1.51
#
DISCID=d7122b0e
DTITLE=Henning Mankell - Die fünfte Frau CD5
DYEAR=2005
DGENRE=Hörbuch
TTITLE0=61 - Die fünfte Frau 5
TTITLE1=62 - Die fünfte Frau 5
TTITLE2=63 - Die fünfte Frau 5
TTITLE3=64 - Die fünfte Frau 5
TTITLE4=65 - Die fünfte Frau 5
TTITLE5=66 - Die fünfte Frau 5
TTITLE6=67 - Die fünfte Frau 5
TTITLE7=68 - Die fünfte Frau 5
TTITLE8=69 - Die fünfte Frau 5
TTITLE9=70 - Die fünfte Frau 5
TTITLE10=71 - Die fünfte Frau 5
TTITLE11=72 - Die fünfte Frau 5
TTITLE12=73 - Die fünfte Frau 5
TTITLE13=74 - Die fünfte Frau 5
EXTD=YEAR: 2005
EXTT0=
EXTT1=
EXTT2=
EXTT3=
EXTT4=
EXTT5=
EXTT6=
EXTT7=
EXTT8=
EXTT9=
EXTT10=
EXTT11=
EXTT12=
EXTT13=
PLAYORDER=
